<svg width="66.91" height="122.88" xmlns="http://www.w3.org/2000/svg">

 <g>
  <title>background</title>
  <rect fill="none" id="canvas_background" height="402" width="582" y="-1" x="-1"/>
 </g>
 <g>
  <title>Layer 1</title>
  <g id="svg_1">
   <path id="svg_2" d="m64.96,111.2c2.65,2.73 2.59,7.08 -0.13,9.73c-2.73,2.65 -7.08,2.59 -9.73,-0.14l-53.13,-54.78l4.93,-4.8l-4.95,4.8c-2.65,-2.74 -2.59,-7.1 0.15,-9.76c0.08,-0.08 0.16,-0.15 0.24,-0.22l52.76,-53.94c2.65,-2.73 7,-2.79 9.73,-0.14c2.73,2.65 2.78,7.01 0.13,9.73l-48.46,49.55l48.46,49.97l0,0l0,0z"/>
  </g>
 </g>
</svg>